<svg xmlns="http://www.w3.org/2000/svg" width="154.935" height="47" viewBox="0 0 154.935 47"><g transform="translate(-190.943 -31.739)"><g transform="translate(297.823 49.333)"><path d="M566.958,101.912v-1.537c2.517-2.172,3.118-3,3.118-3.943,0-.891-.445-1.2-1.181-1.2a4.4,4.4,0,0,0-1.649.368l-.234-1.637a8.122,8.122,0,0,1,2.205-.323,2.428,2.428,0,0,1,2.729,2.628c0,1.125-.568,2.127-2.539,3.976v.089h2.684l.067,1.582Z" transform="translate(-566.958 -93.637)" fill="#ffd400"/><path d="M590.453,102.024c-1.637,0-2.862-.813-2.862-4.2,0-3.274,1.314-4.188,2.862-4.188,1.67,0,2.851.891,2.851,4.188C593.3,100.91,592.168,102.024,590.453,102.024Zm0-6.961c-.679,0-1.058.312-1.058,2.762s.345,2.762,1.047,2.762,1.069-.345,1.069-2.762C591.511,95.43,591.177,95.062,590.453,95.062Z" transform="translate(-581.726 -93.637)" fill="#ffd400"/><path d="M609.215,101.912v-1.537c2.517-2.172,3.119-3,3.119-3.943,0-.891-.445-1.2-1.181-1.2a4.4,4.4,0,0,0-1.648.368l-.234-1.637a8.124,8.124,0,0,1,2.205-.323,2.428,2.428,0,0,1,2.729,2.628c0,1.125-.568,2.127-2.539,3.976v.089h2.684l.067,1.582Z" transform="translate(-597.204 -93.637)" fill="#ffd400"/><path d="M632.413,102.024c-1.637,0-2.862-.813-2.862-4.2,0-3.274,1.314-4.188,2.862-4.188,1.671,0,2.851.891,2.851,4.188C635.265,100.91,634.128,102.024,632.413,102.024Zm0-6.961c-.679,0-1.058.312-1.058,2.762s.345,2.762,1.047,2.762,1.069-.345,1.069-2.762C633.471,95.43,633.137,95.062,632.413,95.062Z" transform="translate(-611.759 -93.637)" fill="#ffd400"/></g><g transform="translate(190.943 31.739)"><g transform="translate(0 0)"><path d="M198.925,47.374h-7.982V68.806h5.965V62.432h1.871c4.239,0,7.894-2.164,7.894-7.865C206.673,49.421,203.72,47.374,198.925,47.374Zm-.234,10.263h-1.783V52.111h1.813c1.053,0,1.725.526,1.725,2.544C200.445,57.023,199.831,57.637,198.691,57.637Z" transform="translate(-190.943 -42.93)" fill="#ffd400"/><path d="M268.9,63.017l-1.813-3.362a6.254,6.254,0,0,0,3.128-5.848c0-4.678-2.982-6.432-7.339-6.432h-8.508V68.806h5.847V61.2h1.4l2.193,4.62c1.14,2.368,2.222,3.158,4.649,3.158a15.292,15.292,0,0,0,2.105-.175V63.6a4.1,4.1,0,0,1-.673.059C269.278,63.66,269.191,63.543,268.9,63.017Zm-6.637-6.286h-2.047V51.965h2.251c1.286,0,1.783.731,1.783,2.164C264.249,55.941,263.606,56.73,262.261,56.73Z" transform="translate(-236.339 -42.93)" fill="#ffd400"/><path d="M332.245,32.588l.894,2.571h4.129v-.38l-1.52-3.041h-6.871l-1.52,3.041v.38h3.995Z" transform="translate(-288.582 -31.739)" fill="#ffd400"/><path d="M326.9,63.865V60.473h7.163V55.532H326.9V52.345h7.719v-4.97h-4.632l-.925.7.793,2.621-2.247-1.564L325.359,50.7l.793-2.621-.925-.7h-4.351V68.806h14.21l-.292-4.941Z" transform="translate(-283.943 -42.93)" fill="#ffd400"/></g><path d="M475.254,81.379l-.029.052A4.465,4.465,0,0,1,470.945,84c-2.568,0-5.1-1.742-5.1-5.563,0-3.27,1.956-5.683,5.012-5.683a4.565,4.565,0,0,1,4.33,2.524l5.112-1.72a.949.949,0,0,0-.061-.194,9.846,9.846,0,0,0-9.5-5.838,10.48,10.48,0,0,0-9.772,6.321,5.691,5.691,0,0,0,.046-.72c0-3.457-2.44-5.141-6.158-5.141h-27.77c2.855-.762,6.157-3.112,6.1-10.617-.064-7.894-3.275-11.023-9.239-11.023-5.936,0-9.239,3.6-9.239,11.14,0,6.3,2.063,9.48,5.976,10.5h-8.61V46.637h-6.023V67.985h0V80.821c.03,4.82-2.265,6.65-6.1,6.65-3.8,0-6.1-1.83-6.069-6.65V68.069h.008l2.573-10.789A16.223,16.223,0,0,0,396.8,55.2h.322c0,.789,0,1.608.029,2.076l.38,10.789h5.7l-1.374-21.432h-7.31L391.655,58.6a13.875,13.875,0,0,0-.292,2.895h-.322a14.038,14.038,0,0,0-.38-2.895l-3.187-11.958h-7.193l-1.462,21.432h5.292l.526-10.789c.029-.819.029-1.286.029-2.076h.322a13.153,13.153,0,0,0,.292,2.076l2.749,10.789h3.864V81.258c0,4.267,2.294,7.9,8.044,7.9,5.366,0,7.726-3.13,8.036-6.995h.037v6.559H454.3c4.529,0,6.85-1.8,7.468-4.307a10.562,10.562,0,0,0,9.121,4.78,10.266,10.266,0,0,0,9.468-6.1ZM411.828,70.947h5.645c1.976,0,3.05.709,3.05,2.8a2.742,2.742,0,0,1-3.05,2.829h-5.645Zm6.138,14.811h-6.138V79.376h6.138c2.208,0,3.486,1.115,3.486,3.147C421.452,84.614,420.174,85.758,417.966,85.758Zm5.969-22.221c-2.427,0-2.924-.877-2.924-6.169,0-5.526.585-6.169,2.894-6.169,2.164,0,2.953.643,2.953,6.169C426.859,62.66,426.362,63.537,423.935,63.537Z" transform="translate(-325.416 -42.193)" fill="#ffd400"/></g></g></svg>