<svg xmlns="http://www.w3.org/2000/svg" viewBox="0 0 690.4 210.1"><path fill="#FFDC00" d="M476.4 116.1v-6.8c11.2-9.7 13.9-13.3 13.9-17.6 0-4-2-5.4-5.3-5.4-2.2 0-4.7.5-7.3 1.6l-1-7.3c2.9-.9 7-1.4 9.8-1.4 7.8 0 12.2 4.3 12.2 11.7 0 5-2.5 9.5-11.3 17.7v.4h12l.3 7h-23.3zM515.2 116.6c-7.3 0-12.7-3.6-12.7-18.7 0-14.6 5.9-18.7 12.7-18.7 7.4 0 12.7 4 12.7 18.7 0 13.8-5 18.7-12.7 18.7zm0-31c-3 0-4.7 1.4-4.7 12.3s1.5 12.3 4.7 12.3c3.1 0 4.8-1.5 4.8-12.3-.1-10.6-1.5-12.3-4.8-12.3zM529.9 116.1v-6.8c11.2-9.7 13.9-13.3 13.9-17.6 0-4-2-5.4-5.3-5.4-2.2 0-4.7.5-7.3 1.6l-1-7.3c2.9-.9 7-1.4 9.8-1.4 7.8 0 12.2 4.3 12.2 11.7 0 5-2.5 9.5-11.3 17.7v.4h12l.3 7h-23.3zM568.4 116.6c-7.3 0-12.7-3.6-12.7-18.7 0-14.6 5.9-18.7 12.7-18.7 7.4 0 12.7 4 12.7 18.7-.1 13.8-5.1 18.7-12.7 18.7zm0-31c-3 0-4.7 1.4-4.7 12.3s1.5 12.3 4.7 12.3c3.1 0 4.8-1.5 4.8-12.3-.1-10.6-1.6-12.3-4.8-12.3z"/><g><path fill="#FFDC00" d="M35.9 20.7H.4v95.4H27V87.8h8.3c18.9 0 35.2-9.6 35.2-35-.1-23-13.2-32.1-34.6-32.1zm-1 45.7H27V41.8h8c4.7 0 7.7 2.3 7.7 11.3 0 10.6-2.7 13.3-7.8 13.3zM145.4 90.4l-8.1-15c8.7-4.9 13.9-13.5 13.9-26 0-20.8-13.3-28.6-32.7-28.6H80.7v95.4h26V82.3h6.3l9.8 20.6c5.1 10.5 9.9 14.1 20.7 14.1 2.9 0 7-.4 9.4-.8V93c-.8.1-1.8.3-3 .3-2.8 0-3.2-.6-4.5-2.9zm-29.6-28h-9.1V41.2h10c5.7 0 7.9 3.3 7.9 9.6.1 8.1-2.8 11.6-8.8 11.6zM194.8 4.7l4 11.5h18.4v-1.7L210.4.9h-30.6l-6.7 13.6v1.7h17.8zM191.7 94.2V79.1h31.9v-22h-31.9V42.9h34.4V20.7h-20.7l-4.1 3.1 3.5 11.7-10-6.9-10 6.9 3.6-11.7-4.2-3.1h-19.3v95.5h63.2l-1.3-22z"/><g><path fill="#FFDC00" d="M667.7 175.4c0 .1-.1.2-.1.2-3.3 6.9-9.8 11.4-19.1 11.4-11.4 0-22.7-7.8-22.7-24.8 0-14.6 8.7-25.3 22.3-25.3 8.9 0 15.3 3.8 19.3 11.2l22.8-7.7c0-.2-.1-.5-.3-.9-6.1-13.9-19.9-26-42.3-26-19.6 0-36.2 11.1-43.5 28.1.1-1 .2-2.1.2-3.2 0-15.4-10.9-22.9-27.4-22.9H453.1c12.7-3.4 27.4-13.9 27.2-47.3-.3-35.2-14.6-49.1-41.1-49.1-26.4 0-41.1 16-41.1 49.6 0 28 9.2 42.2 26.6 46.8h-38.3V20.7h-26.8V173c.1 21.5-10.1 29.6-27.2 29.6-16.9 0-27.2-8.2-27-29.6v-56.8l11.5-48c.8-3.4 1.3-6.5 1.6-9.2h1.4c0 3.5 0 7.2.1 9.2l1.7 48h25.4L341 20.8h-32.6l-13 53.2c-.9 3.6-1.3 9.2-1.3 12.9h-1.4c0-3.6-.8-9.2-1.7-12.9l-14.2-53.3h-32l-6.5 95.4h23.6l2.3-48c.1-3.6.1-5.7.1-9.2h1.4c.3 3.5.7 6.5 1.3 9.2l12.2 48h17.2v58.7c0 19 10.2 35.2 35.8 35.2 23.9 0 34.4-13.9 35.8-31.2h.2V208h206.1c20.2 0 30.5-8 33.3-19.2 8.2 12.8 22.5 21.3 40.6 21.3 20.8 0 35.8-12.7 42.2-27.2l-22.7-7.5zM385.2 129h25.1c8.8 0 13.6 3.2 13.6 12.5 0 8.3-5.8 12.6-13.6 12.6h-25.1V129zm27.3 65.9h-27.3v-28.4h27.3c9.8 0 15.5 5 15.5 14 .1 9.4-5.6 14.4-15.5 14.4zM439.1 96c-10.8 0-13-3.9-13-27.5 0-24.6 2.6-27.5 12.9-27.5 9.6 0 13.2 2.9 13.2 27.5 0 23.6-2.3 27.5-13.1 27.5z"/></g></g></svg>