<svg xmlns="http://www.w3.org/2000/svg" viewBox="0 0 894 565.5"><path fill="#2F2E2B" d="M.7 174.2V-1.6h29v4.8c0 53.8-.2 107.5.2 161.3.1 9.8 1.2 19.8 3.3 29.4 5.5 24.6 20.3 40.8 45.3 46.7 17 4 34.2 3.9 51.2 0 22.6-5.2 37.3-19.1 44.1-41.2 3.4-11.1 4.8-22.5 4.8-34V21.9-343v-3.5h635.6V-3.3c0 4.3 0 4.3 4.1 4.3C830 .8 841.7 2.2 853 6c22.1 7.6 36.2 22.2 39.9 45.7 1.1 6.9 1.1 14 1.6 20.9l1.1-2.2c13.5-27.9 34-49 62-62.4 28.5-13.6 58.4-16.2 89-10.2 40.9 8.1 70.6 31.1 88.5 69 .5 1.1.8 2.3 1.3 3.6-21.6 7.2-42.8 14.3-63.3 21.2-4.1-5.2-7.3-10.2-11.4-14.5-12-12.5-27.2-17.1-44.1-16.9-25.5.4-43.9 12.2-54.9 35-8.2 17-9.5 35.1-6.2 53.5 3.1 17.1 11 31.7 25.6 41.7 13.3 9.1 28.1 12.4 44.1 10.9 20.7-2 36.3-11.7 46.1-30.3.4-.7.9-1.4 1.3-2.1 21.2 7.1 42.2 14.2 63.7 21.4-17.3 35.8-43.9 61.3-82.2 70.9-61.7 15.4-112.8-2.3-151.4-53.9-.1.3-.3.7-.5 1.1-3.9 14.1-11.7 25.5-23.6 34.1-16 11.5-34.3 15.7-53.5 17.5-3.8.3-7.6.6-12.1.9 110.2 101.6 219.8 202.7 330.2 304.5h-5.1c-168.6 0-337.3 0-505.9.1-3.1 0-5.4-.9-7.7-3-57-52.1-114.1-104.2-171.1-156.3L212.6 185.4c-2.4-2.2-4.9-4.4-7.8-7-.2 2.9-.3 5.2-.5 7.4-.3 4.6.2 9.4-.9 13.8-7.7 30-25.7 51.2-55.1 61.7-23.5 8.4-47.8 9.1-72.2 4.6-41.8-7.8-67-36.4-73.4-76.5-.8-5-1.4-10.2-2-15.2zM738.5 224h4c24.1 0 48.2.1 72.4-.1 4.7 0 9.5-.4 14.1-1.3 14.5-3 25-11.1 28.7-25.8 1.5-5.9 1.8-12.4 1.6-18.5-.5-15.3-9.7-27.5-24.4-31.8-6.4-1.9-13.3-2.8-20-2.9-24.1-.3-48.2-.1-72.4-.1h-4V224zm-.1-115.6c1.3.1 2.2.2 3.2.2h67.6c3.5 0 7.1-.3 10.6-1 13.9-3 23.5-10.7 26.9-25 1.9-8 1.5-16-.7-23.9-2.6-9.5-8.6-15.9-18-18.5-4.8-1.3-9.9-2.3-14.9-2.3-23.8-.2-47.6-.1-71.4-.1-1 0-2.1.1-3.3.2v70.4z"/></svg>